<svg xmlns="http://www.w3.org/2000/svg" width="132.297" height="100.006" viewBox="0 0 132.297 100.006"><defs><style>.a{fill:#fff;}.b{fill:#fb5252;}.b,.c{fill-rule:evenodd;}.c{fill:#1e3046;}</style></defs><g transform="translate(0)"><g transform="translate(0 0)"><ellipse class="a" cx="11.166" cy="9.97" rx="11.166" ry="9.97" transform="translate(80.557 11.115)"/><path class="b" d="M111.3,34.346q1.791.737,3.531,1.571a8.086,8.086,0,0,1,5.516-2.426,8.085,8.085,0,0,1,1.05,6.039,67.359,67.359,0,0,1,28.9,37.854h-5.121A27.04,27.04,0,0,0,93.64,88.656a26.719,26.719,0,0,0,1.153,7.787H85.768V88.13H83.091v8.313h-8.13V88.13H64.254v8.313H56.122V88.13H53.445v8.313H45.313V88.13H39.959v8.313H18a67.627,67.627,0,0,1,86.583-64.451,8.131,8.131,0,0,1,3.566-2.928,8.1,8.1,0,0,1,3.152,5.282Zm-1.734,22.068a6.716,6.716,0,1,0-6.753-6.716A6.734,6.734,0,0,0,109.567,56.414ZM112,54.534a2.687,2.687,0,1,1,2.7-2.687A2.694,2.694,0,0,1,112,54.534Z" transform="translate(-18 -29.064)"/><path class="c" d="M18.324,147.29V121.206h8.939a15.687,15.687,0,0,1,3.8.421,8.008,8.008,0,0,1,2.848,1.281,5.613,5.613,0,0,1,1.783,2.194,7.468,7.468,0,0,1,.618,3.162,5.63,5.63,0,0,1-.967,3.225,6.228,6.228,0,0,1-2.831,2.222,6.223,6.223,0,0,1,1.962.886,5.477,5.477,0,0,1,1.379,1.371,5.8,5.8,0,0,1,.815,1.737,7.207,7.207,0,0,1,.269,1.971,8.242,8.242,0,0,1-.618,3.305,6.224,6.224,0,0,1-1.791,2.382,7.909,7.909,0,0,1-2.848,1.443,13.668,13.668,0,0,1-3.789.483Zm4.532-11.77v8.151h5.034a6.154,6.154,0,0,0,1.962-.286,3.922,3.922,0,0,0,1.424-.815,3.355,3.355,0,0,0,.86-1.263,4.449,4.449,0,0,0,.287-1.63,4.327,4.327,0,0,0-1.021-3.045,4.315,4.315,0,0,0-3.314-1.111Zm0-3.332H27.3a5.139,5.139,0,0,0,3.305-.958,3.284,3.284,0,0,0,1.191-2.714,3.329,3.329,0,0,0-1.1-2.795,5.562,5.562,0,0,0-3.431-.86H22.857Zm37.693-10.981v17.449a9.444,9.444,0,0,1-.761,3.923,7.919,7.919,0,0,1-2.087,2.812,8.866,8.866,0,0,1-3.1,1.693,12.472,12.472,0,0,1-3.8.564,12.806,12.806,0,0,1-3.879-.564,8.669,8.669,0,0,1-3.09-1.693,7.742,7.742,0,0,1-2.042-2.812,9.745,9.745,0,0,1-.735-3.923V121.206h4.515v17.449a7.075,7.075,0,0,0,.367,2.41,4.379,4.379,0,0,0,1.048,1.675,4.162,4.162,0,0,0,1.648.976,7.012,7.012,0,0,0,2.168.313,7.1,7.1,0,0,0,2.177-.313,4.081,4.081,0,0,0,1.648-.976,4.435,4.435,0,0,0,1.039-1.675,7.075,7.075,0,0,0,.367-2.41V121.206Zm24.83,22.7a9.025,9.025,0,0,1-1.147,1.192,8.357,8.357,0,0,1-1.89,1.218,13.419,13.419,0,0,1-2.777.949,16.611,16.611,0,0,1-3.807.385,11.765,11.765,0,0,1-4.506-.841,9.764,9.764,0,0,1-3.52-2.437,11.129,11.129,0,0,1-2.284-3.923,16.064,16.064,0,0,1-.815-5.321v-1.72a17.707,17.707,0,0,1,.735-5.312,11.121,11.121,0,0,1,2.114-3.95,8.979,8.979,0,0,1,3.368-2.454,11.493,11.493,0,0,1,4.514-.841,12.628,12.628,0,0,1,4.156.618,8.551,8.551,0,0,1,2.992,1.728,8.062,8.062,0,0,1,1.917,2.642,11.576,11.576,0,0,1,.932,3.359H80.918a7.652,7.652,0,0,0-.537-1.881,4.573,4.573,0,0,0-1.03-1.487,4.653,4.653,0,0,0-1.612-.986,6.537,6.537,0,0,0-2.284-.358,6.083,6.083,0,0,0-2.768.591,5.162,5.162,0,0,0-1.953,1.729,8.181,8.181,0,0,0-1.164,2.795,16.729,16.729,0,0,0-.385,3.771v1.756a14.106,14.106,0,0,0,.466,3.807,8.123,8.123,0,0,0,1.335,2.786,5.758,5.758,0,0,0,2.114,1.72,6.5,6.5,0,0,0,2.822.591,11.305,11.305,0,0,0,2-.152,7.2,7.2,0,0,0,1.406-.385,4.137,4.137,0,0,0,.941-.51,4.674,4.674,0,0,0,.6-.528v-5.106H75.49v-3.439h9.889Zm18.613-3.332a3.963,3.963,0,0,0-.233-1.406,2.778,2.778,0,0,0-.85-1.137,7.06,7.06,0,0,0-1.7-.995,26.089,26.089,0,0,0-2.786-.994,26.911,26.911,0,0,1-3.439-1.272,11.87,11.87,0,0,1-2.714-1.666,7.136,7.136,0,0,1-1.783-2.185,6.03,6.03,0,0,1-.645-2.831,6.323,6.323,0,0,1,.672-2.9A6.877,6.877,0,0,1,92.4,122.89a9.024,9.024,0,0,1,2.92-1.505,12.457,12.457,0,0,1,3.762-.537,11.559,11.559,0,0,1,3.959.636,8.86,8.86,0,0,1,2.965,1.729,7.524,7.524,0,0,1,1.854,2.535,7.439,7.439,0,0,1,.645,3.072h-4.515a4.987,4.987,0,0,0-.3-1.747,3.627,3.627,0,0,0-.9-1.38,4.179,4.179,0,0,0-1.541-.9,6.765,6.765,0,0,0-2.2-.322,7.122,7.122,0,0,0-2.078.269,4.16,4.16,0,0,0-1.46.752,2.972,2.972,0,0,0-.86,1.147,3.672,3.672,0,0,0-.278,1.432,2.876,2.876,0,0,0,1.37,2.419,14.629,14.629,0,0,0,4.183,1.791,24.225,24.225,0,0,1,3.816,1.433,10.918,10.918,0,0,1,2.678,1.782,6.456,6.456,0,0,1,1.586,2.24,7.222,7.222,0,0,1,.519,2.8,6.573,6.573,0,0,1-.654,2.965,6.328,6.328,0,0,1-1.863,2.239,8.749,8.749,0,0,1-2.929,1.416,13.934,13.934,0,0,1-3.834.492,13.708,13.708,0,0,1-3.708-.51,10.486,10.486,0,0,1-3.278-1.541,8.034,8.034,0,0,1-2.339-2.571,7.128,7.128,0,0,1-.886-3.619h4.532A4.752,4.752,0,0,0,94,141.53a3.969,3.969,0,0,0,1.2,1.451,5.035,5.035,0,0,0,1.8.824,9.212,9.212,0,0,0,2.239.26,5.591,5.591,0,0,0,3.556-.959A3.091,3.091,0,0,0,103.992,140.572Zm23.756-4.927H117.034v8.026h12.522v3.619H112.5V121.206h16.93v3.655h-12.4v7.2h10.713Zm20.745,0H137.78v8.026H150.3v3.619H133.247V121.206h16.93v3.655h-12.4v7.2h10.713Z" transform="translate(-18.066 -47.642)"/></g></g></svg>